HIERARCHY
ROOT Hips
{
	OFFSET 0.000000 0.000000 0.000000
	CHANNELS 6 Xposition Yposition Zposition Zrotation Yrotation Xrotation 
	JOINT LowerBack
	{
		OFFSET 0.000000 0.000000 0.000000
		CHANNELS 3 Zrotation Yrotation Xrotation
		JOINT Spine
		{
			OFFSET 0.028270 2.035590 -0.193380
			CHANNELS 3 Zrotation Yrotation Xrotation
			JOINT Spine1
			{
				OFFSET 0.056720 2.048850 -0.042750
				CHANNELS 3 Zrotation Yrotation Xrotation
				JOINT Neck
				{
					OFFSET 0.000000 0.000000 0.000000
					CHANNELS 3 Zrotation Yrotation Xrotation
					JOINT Neck1
					{
						OFFSET -0.054170 1.746240 0.172020
						CHANNELS 3 Zrotation Yrotation Xrotation
						JOINT Head
						{
							OFFSET 0.104070 1.761360 -0.123970
							CHANNELS 3 Zrotation Yrotation Xrotation
							End Site
							{
								OFFSET 0.000000 0.000000 0.000000
							}
						}
					}
				}
				JOINT LeftShoulder
				{
					OFFSET 0.000000 0.000000 0.000000
					CHANNELS 3 Zrotation Yrotation Xrotation
					JOINT LeftArm
					{
						OFFSET 3.362410 1.200890 -0.311210
						CHANNELS 3 Zrotation Yrotation Xrotation
						JOINT LeftForeArm
						{
							OFFSET 4.983000 -0.000000 -0.000000
							CHANNELS 3 Zrotation Yrotation Xrotation
							JOINT LeftHand
							{
								OFFSET 3.483560 -0.000000 -0.000000
								CHANNELS 3 Zrotation Yrotation Xrotation
								JOINT LeftFingerBase
								{
									OFFSET 0.000000 0.000000 0.000000
									CHANNELS 3 Zrotation Yrotation Xrotation
									JOINT LeftHandIndex1
									{
										OFFSET 0.715260 -0.000000 -0.000000
										CHANNELS 3 Zrotation Yrotation Xrotation
										End Site
										{
											OFFSET 0.000000 0.000000 0.000000
										}
									}
								}
								JOINT LThumb
								{
									OFFSET 0.000000 0.000000 0.000000
									CHANNELS 3 Zrotation Yrotation Xrotation
									End Site
									{
										OFFSET 0.000000 0.000000 0.000000
									}
								}
							}
						}
					}
				}
				JOINT RightShoulder
				{
					OFFSET 0.000000 0.000000 0.000000
					CHANNELS 3 Zrotation Yrotation Xrotation
					JOINT RightArm
					{
						OFFSET -3.136600 1.374050 -0.404650
						CHANNELS 3 Zrotation Yrotation Xrotation
						JOINT RightForeArm
						{
							OFFSET -5.241900 -0.000000 -0.000000
							CHANNELS 3 Zrotation Yrotation Xrotation
							JOINT RightHand
							{
								OFFSET -3.444170 -0.000000 -0.000000
								CHANNELS 3 Zrotation Yrotation Xrotation
								JOINT RightFingerBase
								{
									OFFSET 0.000000 0.000000 0.000000
									CHANNELS 3 Zrotation Yrotation Xrotation
									JOINT RightHandIndex1
									{
										OFFSET -0.622530 -0.000000 -0.000000
										CHANNELS 3 Zrotation Yrotation Xrotation
										End Site
										{
											OFFSET 0.000000 0.000000 0.000000
										}
									}
								}
								JOINT RThumb
								{
									OFFSET 0.000000 0.000000 0.000000
									CHANNELS 3 Zrotation Yrotation Xrotation
									End Site
									{
										OFFSET 0.000000 0.000000 0.000000
									}
								}
							}
						}
					}
				}
			}
		}
	}
}
}
MOTION
Frames: 17
Frame Time: 0.008333
19.939872 16.850014 1.430627 162.659769 -85.805601 -111.407595 -0.531489 -2.199274 -2.223820 -0.604436 -2.273347 -3.031306 -4.344177 -2.461332 1.923513 8.790845 -12.162462 -12.238521 -1.351709 -0.014252 -1.705071 0.000000 0.000000 0.000000 -2.032682 16.264488 2.979089 -55.481583 43.140906 -0.903828 -2.707459 -7.551553 0.002524 2.665654 0.697003 0.019523 -0.157727 -0.094551 -0.000000 0.000000 0.000000 0.000000 0.000000 0.000000 0.000000 10.619199 -11.504313 2.831628 51.503798 -43.631432 -30.135510 2.259855 1.177960 0.013062 -8.316619 7.236990 -0.547796 0.216201 -0.098882 -0.000000 0.000000 0.000000 0.000000 0.000000 0.000000 0.000000 
19.920051 16.790247 1.430121 161.913303 -85.810270 -109.937501 -0.525453 -2.203503 -2.457183 -0.620375 -2.287253 -3.105000 -4.402134 -2.478813 1.882504 8.889843 -12.109011 -12.321105 -1.392109 -0.016280 -1.737501 0.000000 0.000000 0.000000 -2.181377 15.987474 3.005293 -55.566753 42.754798 -0.270652 -2.704631 -8.014210 0.001986 2.474938 0.789713 0.020320 -0.152845 -0.093841 -0.000000 0.000000 0.000000 0.000000 0.000000 0.000000 0.000000 10.877256 -11.426550 2.910010 52.009959 -42.929183 -29.988844 2.231281 1.414856 0.012155 -8.302266 7.069162 -0.533997 0.212679 -0.097924 -0.000000 0.000000 0.000000 0.000000 0.000000 0.000000 0.000000 
19.899217 16.724856 1.429458 160.910017 -85.824466 -108.240279 -0.513941 -2.213517 -2.689293 -0.635445 -2.307250 -3.178840 -4.463665 -2.502340 1.841302 8.985615 -12.048525 -12.397805 -1.436057 -0.018773 -1.767678 0.000000 0.000000 0.000000 -2.330955 15.695745 3.029128 -55.649589 42.343996 0.423917 -2.703338 -8.515527 0.001472 2.279081 0.877469 0.020618 -0.147906 -0.093084 -0.000000 0.000000 0.000000 0.000000 0.000000 0.000000 0.000000 11.139813 -11.345244 2.985212 52.508504 -42.158719 -29.916045 2.198808 1.605029 0.011425 -8.319737 6.985815 -0.528697 0.209354 -0.097820 -0.000000 0.000000 0.000000 0.000000 0.000000 0.000000 0.000000 
19.877479 16.653792 1.428782 159.639661 -85.849246 -106.312412 -0.494661 -2.228142 -2.915544 -0.649716 -2.332221 -3.251698 -4.530558 -2.530731 1.798939 9.080566 -11.984815 -12.467654 -1.485234 -0.021904 -1.795281 0.000000 0.000000 0.000000 -2.485585 15.382743 3.050597 -55.725933 41.911041 1.151453 -2.703365 -9.048068 0.000983 2.081622 0.962265 0.020516 -0.142967 -0.092286 -0.000000 0.000000 0.000000 0.000000 0.000000 0.000000 0.000000 11.418180 -11.261573 3.056190 53.006836 -41.358372 -29.719311 2.168006 1.844109 0.010716 -8.389967 6.905241 -0.526796 0.206573 -0.097562 -0.000000 0.000000 0.000000 0.000000 0.000000 0.000000 0.000000 
19.854871 16.577004 1.428111 158.071367 -85.882612 -104.125834 -0.465500 -2.247691 -3.135958 -0.662110 -2.362476 -3.323210 -4.600878 -2.564280 1.756377 9.169093 -11.912001 -12.528969 -1.538534 -0.025602 -1.819726 0.000000 0.000000 0.000000 -2.649710 15.053555 3.069408 -55.788791 41.445545 1.915960 -2.704305 -9.596240 0.000504 1.883474 1.051315 0.020214 -0.138020 -0.091534 -0.000000 0.000000 0.000000 0.000000 0.000000 0.000000 0.000000 11.699028 -11.172288 3.122673 53.498349 -40.503255 -29.566221 2.135451 2.048584 0.010152 -8.483940 6.895223 -0.531696 0.203964 -0.097974 -0.000000 0.000000 0.000000 0.000000 0.000000 0.000000 0.000000 
19.831162 16.494552 1.427529 156.184709 -85.924103 -101.662893 -0.425472 -2.270914 -3.347923 -0.672907 -2.396793 -3.392701 -4.676000 -2.601705 1.712969 9.253751 -11.832829 -12.580752 -1.597415 -0.030017 -1.840703 0.000000 0.000000 0.000000 -2.826362 14.702844 3.085622 -55.835719 40.946283 2.699178 -2.706059 -10.150403 0.000031 1.684622 1.146408 0.019612 -0.133076 -0.090838 -0.000000 0.000000 0.000000 0.000000 0.000000 0.000000 0.000000 11.992778 -11.078248 3.183735 53.988027 -39.622838 -29.305240 2.105755 2.291717 0.009595 -8.611737 6.884559 -0.538595 0.201733 -0.098242 -0.000000 0.000000 0.000000 0.000000 0.000000 0.000000 0.000000 
19.806484 16.406513 1.427048 153.948356 -85.970818 -98.892835 -0.373576 -2.297959 -3.552469 -0.681385 -2.435308 -3.460010 -4.754360 -2.643119 1.670042 9.330791 -11.743255 -12.622077 -1.660956 -0.035081 -1.857882 0.000000 0.000000 0.000000 -3.019345 14.336541 3.098993 -55.861051 40.400777 3.514143 -2.708360 -10.698223 -0.000447 1.483902 1.253877 0.018910 -0.128101 -0.090266 -0.000000 0.000000 0.000000 0.000000 0.000000 0.000000 0.000000 12.289832 -10.977669 3.239379 54.471315 -38.692123 -29.080466 2.076148 2.503261 0.009126 -8.742744 6.919755 -0.549292 0.199500 -0.098962 -0.000000 0.000000 0.000000 0.000000 0.000000 0.000000 0.000000 
19.780715 16.313129 1.426667 151.338762 -86.020568 -95.792930 -0.310677 -2.327644 -3.749027 -0.688188 -2.476830 -3.524916 -4.837148 -2.687275 1.627486 9.404124 -11.647204 -12.652918 -1.730449 -0.040910 -1.871238 0.000000 0.000000 0.000000 -3.227955 13.951967 3.109811 -55.863907 39.803006 4.352129 -2.711215 -11.230898 -0.000928 1.281394 1.372344 0.017907 -0.123115 -0.089794 -0.000000 0.000000 0.000000 0.000000 0.000000 0.000000 0.000000 12.601881 -10.872541 3.288724 54.950694 -37.736009 -28.742469 2.051107 2.753885 0.008608 -8.886155 6.926104 -0.558590 0.197458 -0.099325 -0.000000 0.000000 0.000000 0.000000 0.000000 0.000000 0.000000 
19.753743 16.214710 1.426395 148.335924 -86.070075 -92.343763 -0.238027 -2.359442 -3.937997 -0.693584 -2.520775 -3.587282 -4.924219 -2.733544 1.586116 9.475315 -11.545116 -12.673832 -1.806181 -0.047517 -1.880932 0.000000 0.000000 0.000000 -3.451235 13.553385 3.118330 -55.842240 39.140323 5.219095 -2.714432 -11.738494 -0.001403 1.078583 1.499638 0.016603 -0.118135 -0.089396 -0.000000 0.000000 0.000000 0.000000 0.000000 0.000000 0.000000 12.932228 -10.763011 3.331356 55.422823 -36.753193 -28.283104 2.031418 3.045500 0.008014 -9.032750 6.886425 -0.564287 0.195524 -0.099206 -0.000000 0.000000 0.000000 0.000000 0.000000 0.000000 0.000000 
19.725386 16.111496 1.426156 144.938622 -86.113754 -88.540858 -0.155192 -2.394266 -4.123194 -0.696463 -2.568076 -3.647452 -5.012841 -2.782872 1.548485 9.539261 -11.434186 -12.685993 -1.885649 -0.054646 -1.887310 0.000000 0.000000 0.000000 -3.697311 13.153151 3.123995 -55.787205 38.398627 6.133095 -2.717729 -12.219252 -0.001882 0.876563 1.641644 0.014899 -0.113164 -0.089086 -0.000000 0.000000 0.000000 0.000000 0.000000 0.000000 0.000000 13.262677 -10.649960 3.368858 55.880623 -35.686896 -27.953767 2.010877 3.250639 0.007499 -9.138537 6.893251 -0.571184 0.193107 -0.099679 -0.000000 0.000000 0.000000 0.000000 0.000000 0.000000 0.000000 
19.695425 16.004187 1.426013 141.151227 -86.151774 -84.394895 -0.066237 -2.429211 -4.298451 -0.699582 -2.615729 -3.704696 -5.108206 -2.832172 1.511244 9.611306 -11.312553 -12.689067 -1.975433 -0.062902 -1.890406 0.000000 0.000000 0.000000 -3.945254 12.742192 3.129185 -55.712863 37.565493 7.076087 -2.720421 -12.649773 -0.002282 0.689497 1.764807 0.012895 -0.108337 -0.088617 -0.000000 0.000000 0.000000 0.000000 0.000000 0.000000 0.000000 13.639820 -10.523333 3.397541 56.328373 -34.635436 -27.323047 2.001426 3.593455 0.006758 -9.254420 6.761741 -0.567281 0.190971 -0.098755 -0.000000 0.000000 0.000000 0.000000 0.000000 0.000000 0.000000 
19.663913 15.893087 1.425863 137.026366 -86.176740 -79.953632 0.028882 -2.465876 -4.471112 -0.701076 -2.665396 -3.759740 -5.205393 -2.883174 1.479079 9.682890 -11.182251 -12.686870 -2.070174 -0.071721 -1.891317 0.000000 0.000000 0.000000 -4.209071 12.341626 3.132742 -55.606273 36.624088 8.054545 -2.722361 -13.035137 -0.002623 0.524013 1.882514 0.010790 -0.103730 -0.088006 -0.000000 0.000000 0.000000 0.000000 0.000000 0.000000 0.000000 14.029548 -10.391000 3.420705 56.753988 -33.501365 -26.762757 1.992710 3.872099 0.006053 -9.329681 6.645451 -0.561877 0.188362 -0.098101 -0.000000 0.000000 0.000000 0.000000 0.000000 0.000000 0.000000 
19.630527 15.778868 1.425723 132.626001 -86.187767 -75.281151 0.127042 -2.502584 -4.639586 -0.702203 -2.715373 -3.812140 -5.306000 -2.934148 1.452030 9.762398 -11.043805 -12.681502 -2.172449 -0.081296 -1.890782 0.000000 0.000000 0.000000 -4.475197 11.957009 3.136281 -55.476506 35.552004 9.049824 -2.722617 -13.353407 -0.002844 0.401230 1.973067 0.008987 -0.099519 -0.087048 -0.000000 0.000000 0.000000 0.000000 0.000000 0.000000 0.000000 14.452797 -10.249440 3.436689 57.154780 -32.318753 -26.083748 1.989220 4.177145 0.005267 -9.393738 6.472073 -0.550874 0.185652 -0.096917 0.000000 0.000000 0.000000 0.000000 0.000000 0.000000 0.000000 
19.595013 15.662247 1.425582 128.035846 -86.182525 -70.467378 0.228057 -2.539034 -4.804456 -0.702470 -2.765424 -3.862188 -5.408994 -2.984942 1.430071 9.847940 -10.889423 -12.673138 -2.281684 -0.091565 -1.888891 0.000000 0.000000 0.000000 -4.747119 11.591942 3.139751 -55.324114 34.344159 10.038418 -2.721121 -13.601574 -0.002923 0.337516 2.031155 0.007986 -0.095836 -0.085658 -0.000000 0.000000 0.000000 0.000000 0.000000 0.000000 0.000000 14.901002 -10.092007 3.447038 57.529185 -31.057874 -25.439899 1.986840 4.434280 0.004519 -9.430286 6.313593 -0.539270 0.182555 -0.095930 -0.000000 0.000000 0.000000 0.000000 0.000000 0.000000 0.000000 
19.557348 15.543835 1.425472 123.359883 -86.161086 -65.615556 0.329805 -2.573791 -4.966513 -0.702350 -2.814155 -3.909880 -5.514235 -3.034205 1.413964 9.942472 -10.717823 -12.662907 -2.398418 -0.102545 -1.886095 0.000000 0.000000 0.000000 -5.018661 11.252462 3.143916 -55.156789 32.983583 10.985327 -2.717230 -13.761475 -0.002823 0.357113 2.046223 0.008385 -0.092838 -0.083690 -0.000000 0.000000 0.000000 0.000000 0.000000 0.000000 0.000000 15.379077 -9.916289 3.451655 57.874916 -29.719991 -24.793623 1.985454 4.655565 0.003801 -9.457179 6.167707 -0.528266 0.179218 -0.095049 -0.000000 0.000000 0.000000 0.000000 0.000000 0.000000 0.000000 
19.517240 15.424473 1.425418 118.694125 -86.124424 -60.825502 0.431336 -2.605694 -5.126476 -0.701920 -2.860466 -3.955886 -5.621494 -3.080957 1.402309 10.044698 -10.521917 -12.648779 -2.522568 -0.114250 -1.881814 0.000000 0.000000 0.000000 -5.292446 10.931368 3.148632 -54.981104 31.476854 11.837024 -2.711311 -13.829424 -0.002534 0.480014 2.016042 0.010388 -0.090631 -0.081075 -0.000000 0.000000 0.000000 0.000000 0.000000 0.000000 0.000000 15.881753 -9.716009 3.452115 58.194388 -28.291540 -24.218009 1.982447 4.804581 0.003172 -9.478776 6.077055 -0.521561 0.175584 -0.094647 -0.000000 0.000000 0.000000 0.000000 0.000000 0.000000 0.000000 
19.461002 15.292239 1.447557 100.704269 -86.313847 -42.415656 1.371096 -2.740286 -5.739849 -0.474493 -3.070320 -4.104580 -5.718437 -3.293511 1.429889 9.939805 -10.306216 -12.619760 -2.647730 -0.127038 -1.861162 0.000000 0.000000 0.000000 -5.894781 10.727797 3.151819 -54.770624 29.868278 12.655073 -2.676573 -13.810047 -0.002012 0.730601 1.928110 0.014296 -0.088732 -0.077012 0.000000 0.000000 0.000000 0.000000 0.000000 0.000000 0.000000 16.109732 -9.583017 3.400407 58.268724 -26.924337 -23.494304 2.038289 4.932928 0.002980 -9.508410 6.016008 -0.517856 0.175339 -0.094280 -0.000000 0.000000 0.000000 0.000000 0.000000 0.000000 0.000000 
